<svg width="199" height="164" viewBox="0 0 199 164" fill="none" xmlns="http://www.w3.org/2000/svg">
<path fill-rule="evenodd" clip-rule="evenodd" d="M22.3344 117.077C19.2872 117.077 15.6709 117.667 11.7197 121.846V110.15C11.7197 107.195 9.09112 104.792 5.85984 104.792C2.62855 104.792 0 107.195 0 110.15V148.293C0 151.247 2.62855 153.651 5.85984 153.651C9.09112 153.651 11.7197 151.247 11.7197 148.293V133.489C11.7197 129.233 13.9297 126.883 17.9562 126.883C21.899 126.883 23.9751 129.164 23.9751 133.489V148.293C23.9751 151.247 26.6037 153.651 29.8349 153.651C33.0662 153.651 35.6948 151.247 35.6948 148.293V130.381C35.6864 122.053 30.6972 117.077 22.3344 117.077ZM55.9865 117.337C51.215 117.337 47.4312 117.904 43.7227 119.175C41.7973 119.833 40.5082 121.532 40.5082 123.4C40.5082 125.895 42.6763 127.847 45.4472 127.847C46.0164 127.847 46.4936 127.771 47.1466 127.572C49.3984 126.929 51.7758 126.622 54.4295 126.622C60.7246 126.622 62.064 129.799 62.0808 132.486C59.8959 131.835 57.1418 131.238 53.2994 131.238C43.2874 131.238 37.5448 135.425 37.5448 142.735V142.866C37.5448 149.471 42.9693 153.911 51.0392 153.911C55.5847 153.911 59.2262 152.648 62.131 150.061C62.6249 151.952 64.6089 153.659 67.656 153.659C70.8621 153.659 73.3735 151.393 73.3735 148.499V132.708C73.3735 127.74 71.9504 123.913 69.1293 121.341C66.2161 118.685 61.7961 117.337 55.9865 117.337ZM54.2872 146.234C50.9638 146.234 48.9045 144.795 48.9045 142.475V142.345C48.9045 139.582 51.4326 138.005 55.8442 138.005C58.1044 138.005 60.3563 138.411 62.2231 139.145V140.607C62.2231 143.914 58.9583 146.234 54.2872 146.234ZM89.0779 121.938C92.1082 118.669 95.8418 117.077 100.463 117.077C109.278 117.077 118.193 123.377 118.193 135.425V135.555C118.193 141.105 116.326 145.805 112.802 149.158C109.579 152.227 105.201 153.911 100.463 153.911C95.9004 153.911 92.2756 152.487 89.1365 149.456V158.642C89.1365 161.596 86.5079 164 83.2766 164C80.0453 164 77.4168 161.596 77.4168 158.642V122.696C77.4168 119.741 80.0453 117.337 83.2766 117.337C86.2316 117.337 88.676 119.343 89.0779 121.938ZM106.482 135.425C106.482 130.228 102.706 126.301 97.7002 126.301C92.6607 126.301 88.9941 130.136 88.9941 135.425V135.555C88.9941 140.845 92.6523 144.68 97.7002 144.68C102.79 144.68 106.482 140.845 106.482 135.555V135.425ZM143.943 117.077C139.322 117.077 135.588 118.669 132.558 121.938C132.156 119.343 129.712 117.337 126.757 117.337C123.525 117.337 120.897 119.741 120.897 122.696V158.642C120.897 161.596 123.525 164 126.757 164C129.988 164 132.616 161.596 132.616 158.642V149.456C135.756 152.487 139.38 153.911 143.943 153.911C148.681 153.911 153.059 152.227 156.282 149.158C159.806 145.805 161.673 141.105 161.673 135.555V135.425C161.673 123.377 152.757 117.077 143.943 117.077ZM141.18 126.301C146.186 126.301 149.962 130.228 149.962 135.425V135.555C149.962 140.845 146.27 144.68 141.18 144.68C136.132 144.68 132.474 140.845 132.474 135.555V135.425C132.474 130.136 136.141 126.301 141.18 126.301ZM187.816 121.379C188.904 118.731 190.846 117.337 193.433 117.337C196.556 117.337 199.008 119.519 199 122.29C199 123.094 198.715 124.257 198.464 124.793L185.246 153.819C181.923 161.175 178.457 163.786 172.003 163.786C169.726 163.786 167.976 163.51 165.967 162.852C164.586 162.392 162.259 161.198 162.259 158.366C162.259 155.58 164.661 153.919 166.98 153.919C167.901 153.919 168.453 154.064 168.897 154.202C169.81 154.462 170.312 154.569 171.007 154.569C172.765 154.569 173.501 154.309 174.389 152.755L174.657 152.173L161.798 124.931C161.505 124.257 161.196 123.216 161.196 122.489C161.196 119.55 163.682 117.33 166.98 117.33C169.701 117.33 171.542 118.631 172.597 121.31L180.341 140.347L187.816 121.379Z" fill="white"/>
<path d="M141.511 22.5013V53.8103C141.511 66.2368 130.426 76.3116 116.754 76.3116H114.249L101.462 87.9264C100.961 88.3815 100.268 88.6698 99.5 88.6698C98.7905 88.6698 98.1478 88.4346 97.6553 88.0401L97.4383 87.8429L97.4299 87.8353L84.7506 76.3116H82.2381C68.5739 76.3116 57.4889 66.2368 57.4889 53.8103V22.5013C57.4889 10.0747 68.5739 0 82.2465 0H116.754C130.426 0 141.511 10.0747 141.511 22.5013Z" fill="#FFD666"/>
<path d="M77.0519 43.373C74.6145 43.373 73.2252 45.8973 74.6394 47.72C80.1381 54.82 89.2305 59.4491 99.5042 59.4491C109.778 59.4491 118.862 54.8124 124.361 47.72C125.775 45.8973 124.386 43.373 121.948 43.373H77.0519Z" fill="white"/>
<path d="M91.3269 32.6277H76.6193V25.8861C76.6193 22.1645 79.9135 19.1445 83.9731 19.1445C88.0326 19.1445 91.3269 22.1645 91.3269 25.8861V32.6277Z" fill="white"/>
<path d="M122.389 32.6277H107.681V25.8861C107.681 22.1645 110.976 19.1445 115.035 19.1445C119.095 19.1445 122.389 22.1645 122.389 25.8861V32.6277Z" fill="white"/>
<path d="M77.0519 43.373C74.6145 43.373 73.2252 45.8973 74.6394 47.72C80.1381 54.82 89.2305 59.4491 99.5042 59.4491C109.778 59.4491 118.862 54.8124 124.361 47.72C125.775 45.8973 124.386 43.373 121.948 43.373H77.0519Z" fill="white"/>
<path d="M91.3269 32.6277H76.6193V25.8861C76.6193 22.1645 79.9135 19.1445 83.9731 19.1445C88.0326 19.1445 91.3269 22.1645 91.3269 25.8861V32.6277Z" fill="white"/>
<path d="M122.389 32.6277H107.681V25.8861C107.681 22.1645 110.976 19.1445 115.035 19.1445C119.095 19.1445 122.389 22.1645 122.389 25.8861V32.6277Z" fill="white"/>
</svg>
